<svg width="24" height="42" viewBox="0 0 24 42" fill="none" xmlns="http://www.w3.org/2000/svg">
<path d="M23.0603 0.547429C21.3051 0.0608255 18.4604 0.182476 17.5525 0.364953C14.0117 1.4294 11.4091 3.86242 9.83544 7.54236C9.29071 3.28458 5.65916 0 1.27104 0H0C0 7.6336 0 31.903 0 40.6923C0 41.4222 0.574995 42 1.3013 42H8.62492C9.35123 42 9.92623 41.4222 9.92623 40.6923V20.9848C9.92623 12.8342 14.4959 7.11658 22.2432 10.0058C23.0906 10.3099 23.9985 9.70166 23.9985 8.78928V1.82476C24.0287 1.24692 23.6051 0.699493 23.0603 0.547429Z" fill="#1FBAED"/>
</svg>
