<svg width="61" height="42" viewBox="0 0 61 42" fill="none" xmlns="http://www.w3.org/2000/svg">
<path d="M47.3904 0.0234228C41.2844 0.0234228 37.0618 2.54262 33.9328 7.36857C29.7709 -2.46543 15.5842 -2.25296 9.69074 6.79188C8.77938 2.9372 5.34661 0.0841264 1.24552 0.0841264H0C0 7.70243 0 31.8928 0 40.6949C0 41.4233 0.577191 42 1.30627 42H8.65787C9.38695 42 9.96414 41.4233 9.96414 40.6949V19.0237C9.96414 13.5603 12.5767 8.27912 17.9841 8.27912C23.0269 8.27912 25.4572 11.4964 25.4572 18.1131V40.6645C25.4572 41.393 26.0344 41.9696 26.7634 41.9696H34.115C34.8441 41.9696 35.4213 41.393 35.4213 40.6645V19.0237C35.4213 13.8335 38.3376 8.27912 43.4412 8.27912C49.7296 8.27912 51.0055 12.5284 51.0055 18.9023V40.6949C51.0055 41.4233 51.5827 42 52.3118 42H59.6937C60.4228 42 61 41.4233 61 40.6949V16.7776C60.9696 6.64012 57.385 0.0234228 47.3904 0.0234228" fill="#061A54"/>
</svg>
